<?xml version="1.0" encoding="UTF-8"?>
<svg xmlns="http://www.w3.org/2000/svg" version="1.1" width="1000" height="800" viewBox="0 0 1000 800">
  <rect x="0" y="600" width="1000" height="200" style="fill:#90ee90" />
  <rect x="300" y="300" width="400" height="300" style="fill:#f4e4c1;stroke:#000000;stroke-width:2.0" />
  <rect x="250" y="250" width="500" height="80" style="fill:#8b4513;stroke:#000000;stroke-width:2.0" />
  <rect x="450" y="450" width="100" height="150" style="fill:#654321;stroke:#000000;stroke-width:2.0" />
  <rect x="530" y="520" width="10" height="10" rx="5" ry="5" style="fill:#ffd700" />
  <rect x="340" y="350" width="80" height="80" style="fill:#87ceeb;stroke:#000000;stroke-width:2.0" />
  <rect x="340" y="388" width="80" height="4" style="fill:#000000" />
  <rect x="378" y="350" width="4" height="80" style="fill:#000000" />
  <rect x="580" y="350" width="80" height="80" style="fill:#87ceeb;stroke:#000000;stroke-width:2.0" />
  <rect x="580" y="388" width="80" height="4" style="fill:#000000" />
  <rect x="618" y="350" width="4" height="80" style="fill:#000000" />
  <rect x="300" y="580" width="40" height="20" style="fill:#b22222;stroke:#8b0000;stroke-width:1.0" />
  <rect x="342" y="580" width="40" height="20" style="fill:#b22222;stroke:#8b0000;stroke-width:1.0" />
  <rect x="384" y="580" width="40" height="20" style="fill:#b22222;stroke:#8b0000;stroke-width:1.0" />
  <rect x="552" y="580" width="40" height="20" style="fill:#b22222;stroke:#8b0000;stroke-width:1.0" />
  <rect x="594" y="580" width="40" height="20" style="fill:#b22222;stroke:#8b0000;stroke-width:1.0" />
  <rect x="636" y="580" width="40" height="20" style="fill:#b22222;stroke:#8b0000;stroke-width:1.0" />
  <rect x="678" y="580" width="22" height="20" style="fill:#b22222;stroke:#8b0000;stroke-width:1.0" />
  <rect x="320" y="558" width="40" height="20" style="fill:#b22222;stroke:#8b0000;stroke-width:1.0" />
  <rect x="362" y="558" width="40" height="20" style="fill:#b22222;stroke:#8b0000;stroke-width:1.0" />
  <rect x="404" y="558" width="40" height="20" style="fill:#b22222;stroke:#8b0000;stroke-width:1.0" />
  <rect x="572" y="558" width="40" height="20" style="fill:#b22222;stroke:#8b0000;stroke-width:1.0" />
  <rect x="614" y="558" width="40" height="20" style="fill:#b22222;stroke:#8b0000;stroke-width:1.0" />
  <rect x="656" y="558" width="40" height="20" style="fill:#b22222;stroke:#8b0000;stroke-width:1.0" />
  <rect x="698" y="558" width="2" height="20" style="fill:#b22222;stroke:#8b0000;stroke-width:1.0" />
  <rect x="300" y="536" width="40" height="20" style="fill:#b22222;stroke:#8b0000;stroke-width:1.0" />
  <rect x="342" y="536" width="40" height="20" style="fill:#b22222;stroke:#8b0000;stroke-width:1.0" />
  <rect x="384" y="536" width="40" height="20" style="fill:#b22222;stroke:#8b0000;stroke-width:1.0" />
  <rect x="552" y="536" width="40" height="20" style="fill:#b22222;stroke:#8b0000;stroke-width:1.0" />
  <rect x="594" y="536" width="40" height="20" style="fill:#b22222;stroke:#8b0000;stroke-width:1.0" />
  <rect x="636" y="536" width="40" height="20" style="fill:#b22222;stroke:#8b0000;stroke-width:1.0" />
  <rect x="678" y="536" width="22" height="20" style="fill:#b22222;stroke:#8b0000;stroke-width:1.0" />
  <rect x="320" y="514" width="40" height="20" style="fill:#b22222;stroke:#8b0000;stroke-width:1.0" />
  <rect x="362" y="514" width="40" height="20" style="fill:#b22222;stroke:#8b0000;stroke-width:1.0" />
  <rect x="404" y="514" width="40" height="20" style="fill:#b22222;stroke:#8b0000;stroke-width:1.0" />
  <rect x="572" y="514" width="40" height="20" style="fill:#b22222;stroke:#8b0000;stroke-width:1.0" />
  <rect x="614" y="514" width="40" height="20" style="fill:#b22222;stroke:#8b0000;stroke-width:1.0" />
  <rect x="656" y="514" width="40" height="20" style="fill:#b22222;stroke:#8b0000;stroke-width:1.0" />
  <rect x="698" y="514" width="2" height="20" style="fill:#b22222;stroke:#8b0000;stroke-width:1.0" />
  <rect x="300" y="492" width="40" height="20" style="fill:#b22222;stroke:#8b0000;stroke-width:1.0" />
  <rect x="342" y="492" width="40" height="20" style="fill:#b22222;stroke:#8b0000;stroke-width:1.0" />
  <rect x="384" y="492" width="40" height="20" style="fill:#b22222;stroke:#8b0000;stroke-width:1.0" />
  <rect x="552" y="492" width="40" height="20" style="fill:#b22222;stroke:#8b0000;stroke-width:1.0" />
  <rect x="594" y="492" width="40" height="20" style="fill:#b22222;stroke:#8b0000;stroke-width:1.0" />
  <rect x="636" y="492" width="40" height="20" style="fill:#b22222;stroke:#8b0000;stroke-width:1.0" />
  <rect x="678" y="492" width="22" height="20" style="fill:#b22222;stroke:#8b0000;stroke-width:1.0" />
  <rect x="100" y="450" width="40" height="150" style="fill:#654321;stroke:#000000;stroke-width:1.0" />
  <rect x="60" y="300" width="120" height="180" rx="60" ry="60" style="fill:#228b22;stroke:#006400;stroke-width:2.0" />
  <rect x="80" y="250" width="80" height="100" rx="40" ry="40" style="fill:#228b22" />
  <rect x="820" y="480" width="30" height="120" style="fill:#654321;stroke:#000000;stroke-width:1.0" />
  <rect x="790" y="350" width="90" height="150" rx="45" ry="45" style="fill:#228b22;stroke:#006400;stroke-width:2.0" />
  <rect x="800" y="320" width="70" height="80" rx="35" ry="35" style="fill:#228b22" />
  <rect x="200" y="560" width="60" height="40" rx="20" ry="20" style="fill:#32cd32;stroke:#228b22;stroke-width:1.0" />
  <rect x="740" y="570" width="50" height="30" rx="15" ry="15" style="fill:#32cd32;stroke:#228b22;stroke-width:1.0" />
  <rect x="600" y="200" width="60" height="100" style="fill:#b22222;stroke:#000000;stroke-width:2.0" />
  <rect x="850" y="50" width="80" height="80" rx="40" ry="40" style="fill:#ffff00;stroke:#ffa500;stroke-width:3.0" />
</svg>